# xmcd
#
# Track frame offsets: 
#        150
#        22917
#        39954
#        55616
#        78228
#        94949
#        116119
#        130334
#        158341
#
# Disc length: 2501 seconds
#
# Revision: 0
# Processed by: cddbd v1.5.2PL0 Copyright (c) Steve Scherf et al.
# Submitted via: ExactAudioCopyFreeDBPlugin 1.0
#
DISCID=5f09c309
DTITLE=best before - best before
DYEAR=1900
DGENRE=Blues
TTITLE0=Back Home
TTITLE1=Who's Gonna Love Me Now
TTITLE2=Dirty Sway
TTITLE3=Stay
TTITLE4=Something Happened On My Way To Heaven
TTITLE5=Try Again
TTITLE6=Crazy Annie
TTITLE7=Like A King in The Sky
TTITLE8=Get Away
EXTD=
EXTT0=
EXTT1=
EXTT2=
EXTT3=
EXTT4=
EXTT5=
EXTT6=
EXTT7=
EXTT8=
PLAYORDER=
